<mxfile host="app.diagrams.net" modified="2024-07-01T09:18:57.760Z" agent="Mozilla/5.0 (Windows NT 10.0; Win64; x64) AppleWebKit/537.36 (KHTML, like Gecko) Chrome/126.0.0.0 Safari/537.36 Edg/126.0.0.0" etag="QuaJ4TQGmSd3LUixz0r3" version="24.6.4" type="device">
  <diagram id="C5RBs43oDa-KdzZeNtuy" name="Page-1">
    <mxGraphModel dx="906" dy="665" grid="1" gridSize="10" guides="1" tooltips="1" connect="1" arrows="1" fold="1" page="1" pageScale="1" pageWidth="827" pageHeight="1169" math="0" shadow="0">
      <root>
        <mxCell id="WIyWlLk6GJQsqaUBKTNV-0" />
        <mxCell id="WIyWlLk6GJQsqaUBKTNV-1" parent="WIyWlLk6GJQsqaUBKTNV-0" />
        <mxCell id="WIyWlLk6GJQsqaUBKTNV-4" value="否" style="rounded=0;html=1;jettySize=auto;orthogonalLoop=1;fontSize=11;endArrow=block;endFill=0;endSize=8;strokeWidth=1;shadow=0;labelBackgroundColor=none;edgeStyle=orthogonalEdgeStyle;entryX=1;entryY=0.5;entryDx=0;entryDy=0;" parent="WIyWlLk6GJQsqaUBKTNV-1" source="WIyWlLk6GJQsqaUBKTNV-6" target="PrJg2hj3l42-YnzctC9T-12" edge="1">
          <mxGeometry x="0.2" y="-10" relative="1" as="geometry">
            <mxPoint as="offset" />
          </mxGeometry>
        </mxCell>
        <mxCell id="PrJg2hj3l42-YnzctC9T-1" value="用户" style="swimlane;whiteSpace=wrap;html=1;" vertex="1" parent="WIyWlLk6GJQsqaUBKTNV-1">
          <mxGeometry x="60" y="30" width="200" height="570" as="geometry" />
        </mxCell>
        <mxCell id="PrJg2hj3l42-YnzctC9T-6" value="检验邮箱状态" style="rounded=0;whiteSpace=wrap;html=1;" vertex="1" parent="PrJg2hj3l42-YnzctC9T-1">
          <mxGeometry x="50" y="35" width="100" height="25" as="geometry" />
        </mxCell>
        <mxCell id="PrJg2hj3l42-YnzctC9T-12" value="发送验证码" style="rounded=0;whiteSpace=wrap;html=1;" vertex="1" parent="PrJg2hj3l42-YnzctC9T-1">
          <mxGeometry x="50" y="87.5" width="100" height="25" as="geometry" />
        </mxCell>
        <mxCell id="PrJg2hj3l42-YnzctC9T-17" style="edgeStyle=orthogonalEdgeStyle;rounded=0;orthogonalLoop=1;jettySize=auto;html=1;exitX=0.5;exitY=1;exitDx=0;exitDy=0;entryX=0.5;entryY=0;entryDx=0;entryDy=0;" edge="1" parent="PrJg2hj3l42-YnzctC9T-1" source="PrJg2hj3l42-YnzctC9T-13" target="PrJg2hj3l42-YnzctC9T-16">
          <mxGeometry relative="1" as="geometry" />
        </mxCell>
        <mxCell id="PrJg2hj3l42-YnzctC9T-13" value="用户登录" style="rounded=0;whiteSpace=wrap;html=1;" vertex="1" parent="PrJg2hj3l42-YnzctC9T-1">
          <mxGeometry x="50" y="130" width="100" height="25" as="geometry" />
        </mxCell>
        <mxCell id="PrJg2hj3l42-YnzctC9T-19" style="edgeStyle=orthogonalEdgeStyle;rounded=0;orthogonalLoop=1;jettySize=auto;html=1;exitX=0.5;exitY=1;exitDx=0;exitDy=0;entryX=0.5;entryY=0;entryDx=0;entryDy=0;" edge="1" parent="PrJg2hj3l42-YnzctC9T-1" source="PrJg2hj3l42-YnzctC9T-16" target="PrJg2hj3l42-YnzctC9T-18">
          <mxGeometry relative="1" as="geometry" />
        </mxCell>
        <mxCell id="PrJg2hj3l42-YnzctC9T-16" value="浏览点单界面" style="rounded=0;whiteSpace=wrap;html=1;" vertex="1" parent="PrJg2hj3l42-YnzctC9T-1">
          <mxGeometry x="50" y="180" width="100" height="25" as="geometry" />
        </mxCell>
        <mxCell id="PrJg2hj3l42-YnzctC9T-18" value="输入相关内容进行咖啡种类搜索" style="rounded=0;whiteSpace=wrap;html=1;" vertex="1" parent="PrJg2hj3l42-YnzctC9T-1">
          <mxGeometry x="50" y="230" width="100" height="30" as="geometry" />
        </mxCell>
        <mxCell id="PrJg2hj3l42-YnzctC9T-22" value="选择所需产品" style="rounded=0;whiteSpace=wrap;html=1;" vertex="1" parent="PrJg2hj3l42-YnzctC9T-1">
          <mxGeometry x="50" y="280" width="100" height="25" as="geometry" />
        </mxCell>
        <mxCell id="PrJg2hj3l42-YnzctC9T-32" style="edgeStyle=orthogonalEdgeStyle;rounded=0;orthogonalLoop=1;jettySize=auto;html=1;exitX=0.5;exitY=1;exitDx=0;exitDy=0;entryX=0.5;entryY=0;entryDx=0;entryDy=0;" edge="1" parent="PrJg2hj3l42-YnzctC9T-1" source="PrJg2hj3l42-YnzctC9T-26" target="PrJg2hj3l42-YnzctC9T-31">
          <mxGeometry relative="1" as="geometry" />
        </mxCell>
        <mxCell id="PrJg2hj3l42-YnzctC9T-26" value="用户查看购物车" style="rounded=0;whiteSpace=wrap;html=1;" vertex="1" parent="PrJg2hj3l42-YnzctC9T-1">
          <mxGeometry x="50" y="350" width="100" height="25" as="geometry" />
        </mxCell>
        <mxCell id="PrJg2hj3l42-YnzctC9T-31" value="确认产品下单" style="rounded=0;whiteSpace=wrap;html=1;" vertex="1" parent="PrJg2hj3l42-YnzctC9T-1">
          <mxGeometry x="50" y="400" width="100" height="25" as="geometry" />
        </mxCell>
        <mxCell id="PrJg2hj3l42-YnzctC9T-36" value="返回支付信息" style="rounded=0;whiteSpace=wrap;html=1;" vertex="1" parent="PrJg2hj3l42-YnzctC9T-1">
          <mxGeometry x="50" y="450" width="100" height="25" as="geometry" />
        </mxCell>
        <mxCell id="PrJg2hj3l42-YnzctC9T-38" value="用户查看订单状态" style="rounded=0;whiteSpace=wrap;html=1;" vertex="1" parent="PrJg2hj3l42-YnzctC9T-1">
          <mxGeometry x="50" y="500" width="100" height="25" as="geometry" />
        </mxCell>
        <mxCell id="PrJg2hj3l42-YnzctC9T-2" value="系统" style="swimlane;whiteSpace=wrap;html=1;" vertex="1" parent="WIyWlLk6GJQsqaUBKTNV-1">
          <mxGeometry x="260" y="30" width="200" height="570" as="geometry" />
        </mxCell>
        <mxCell id="PrJg2hj3l42-YnzctC9T-11" style="edgeStyle=orthogonalEdgeStyle;rounded=0;orthogonalLoop=1;jettySize=auto;html=1;exitX=0.5;exitY=1;exitDx=0;exitDy=0;entryX=0.5;entryY=0;entryDx=0;entryDy=0;" edge="1" parent="PrJg2hj3l42-YnzctC9T-2" source="PrJg2hj3l42-YnzctC9T-5" target="WIyWlLk6GJQsqaUBKTNV-6">
          <mxGeometry relative="1" as="geometry" />
        </mxCell>
        <mxCell id="PrJg2hj3l42-YnzctC9T-5" value="检验邮箱状态" style="rounded=0;whiteSpace=wrap;html=1;" vertex="1" parent="PrJg2hj3l42-YnzctC9T-2">
          <mxGeometry x="50" y="35" width="100" height="25" as="geometry" />
        </mxCell>
        <mxCell id="WIyWlLk6GJQsqaUBKTNV-6" value="是否已注册" style="rhombus;whiteSpace=wrap;html=1;shadow=0;fontFamily=Helvetica;fontSize=12;align=center;strokeWidth=1;spacing=6;spacingTop=-4;" parent="PrJg2hj3l42-YnzctC9T-2" vertex="1">
          <mxGeometry x="50" y="80" width="95" height="40" as="geometry" />
        </mxCell>
        <mxCell id="PrJg2hj3l42-YnzctC9T-20" value="检索符合条件&lt;div&gt;的产品&lt;/div&gt;" style="rounded=0;whiteSpace=wrap;html=1;" vertex="1" parent="PrJg2hj3l42-YnzctC9T-2">
          <mxGeometry x="54" y="226.25" width="100" height="37.5" as="geometry" />
        </mxCell>
        <mxCell id="PrJg2hj3l42-YnzctC9T-24" value="更新购物车状态" style="rounded=0;whiteSpace=wrap;html=1;" vertex="1" parent="PrJg2hj3l42-YnzctC9T-2">
          <mxGeometry x="50" y="310" width="100" height="25" as="geometry" />
        </mxCell>
        <mxCell id="PrJg2hj3l42-YnzctC9T-33" value="系统处理支付信息" style="rounded=0;whiteSpace=wrap;html=1;" vertex="1" parent="PrJg2hj3l42-YnzctC9T-2">
          <mxGeometry x="50" y="400" width="100" height="25" as="geometry" />
        </mxCell>
        <mxCell id="PrJg2hj3l42-YnzctC9T-3" value="管理员" style="swimlane;whiteSpace=wrap;html=1;" vertex="1" parent="WIyWlLk6GJQsqaUBKTNV-1">
          <mxGeometry x="460" y="30" width="200" height="570" as="geometry" />
        </mxCell>
        <mxCell id="PrJg2hj3l42-YnzctC9T-41" style="edgeStyle=orthogonalEdgeStyle;rounded=0;orthogonalLoop=1;jettySize=auto;html=1;exitX=0.5;exitY=1;exitDx=0;exitDy=0;entryX=0.5;entryY=0;entryDx=0;entryDy=0;" edge="1" parent="PrJg2hj3l42-YnzctC9T-3" source="PrJg2hj3l42-YnzctC9T-39" target="PrJg2hj3l42-YnzctC9T-40">
          <mxGeometry relative="1" as="geometry" />
        </mxCell>
        <mxCell id="PrJg2hj3l42-YnzctC9T-39" value="员工获取订单信息" style="rounded=0;whiteSpace=wrap;html=1;" vertex="1" parent="PrJg2hj3l42-YnzctC9T-3">
          <mxGeometry x="60" y="400" width="100" height="25" as="geometry" />
        </mxCell>
        <mxCell id="PrJg2hj3l42-YnzctC9T-43" style="edgeStyle=orthogonalEdgeStyle;rounded=0;orthogonalLoop=1;jettySize=auto;html=1;exitX=0.5;exitY=1;exitDx=0;exitDy=0;entryX=0.5;entryY=0;entryDx=0;entryDy=0;" edge="1" parent="PrJg2hj3l42-YnzctC9T-3" source="PrJg2hj3l42-YnzctC9T-40" target="PrJg2hj3l42-YnzctC9T-42">
          <mxGeometry relative="1" as="geometry" />
        </mxCell>
        <mxCell id="PrJg2hj3l42-YnzctC9T-40" value="员工开始制作" style="rounded=0;whiteSpace=wrap;html=1;" vertex="1" parent="PrJg2hj3l42-YnzctC9T-3">
          <mxGeometry x="60" y="450" width="100" height="25" as="geometry" />
        </mxCell>
        <mxCell id="PrJg2hj3l42-YnzctC9T-42" value="更新订单状态" style="rounded=0;whiteSpace=wrap;html=1;" vertex="1" parent="PrJg2hj3l42-YnzctC9T-3">
          <mxGeometry x="60" y="500" width="100" height="25" as="geometry" />
        </mxCell>
        <mxCell id="PrJg2hj3l42-YnzctC9T-46" value="上架产品" style="rounded=0;whiteSpace=wrap;html=1;" vertex="1" parent="PrJg2hj3l42-YnzctC9T-3">
          <mxGeometry x="60" y="232.5" width="100" height="25" as="geometry" />
        </mxCell>
        <mxCell id="PrJg2hj3l42-YnzctC9T-8" style="edgeStyle=orthogonalEdgeStyle;rounded=0;orthogonalLoop=1;jettySize=auto;html=1;exitX=1;exitY=0.5;exitDx=0;exitDy=0;entryX=0;entryY=0.5;entryDx=0;entryDy=0;" edge="1" parent="WIyWlLk6GJQsqaUBKTNV-1" source="PrJg2hj3l42-YnzctC9T-6" target="PrJg2hj3l42-YnzctC9T-5">
          <mxGeometry relative="1" as="geometry" />
        </mxCell>
        <mxCell id="PrJg2hj3l42-YnzctC9T-14" value="" style="endArrow=classic;html=1;rounded=0;exitX=0.5;exitY=1;exitDx=0;exitDy=0;entryX=1;entryY=0.5;entryDx=0;entryDy=0;" edge="1" parent="WIyWlLk6GJQsqaUBKTNV-1" source="WIyWlLk6GJQsqaUBKTNV-6" target="PrJg2hj3l42-YnzctC9T-13">
          <mxGeometry width="50" height="50" relative="1" as="geometry">
            <mxPoint x="380" y="370" as="sourcePoint" />
            <mxPoint x="430" y="320" as="targetPoint" />
            <Array as="points">
              <mxPoint x="358" y="173" />
            </Array>
          </mxGeometry>
        </mxCell>
        <mxCell id="PrJg2hj3l42-YnzctC9T-15" value="是" style="edgeLabel;html=1;align=center;verticalAlign=middle;resizable=0;points=[];" vertex="1" connectable="0" parent="PrJg2hj3l42-YnzctC9T-14">
          <mxGeometry x="0.0763" y="-6" relative="1" as="geometry">
            <mxPoint x="61" y="-7" as="offset" />
          </mxGeometry>
        </mxCell>
        <mxCell id="PrJg2hj3l42-YnzctC9T-21" style="edgeStyle=orthogonalEdgeStyle;rounded=0;orthogonalLoop=1;jettySize=auto;html=1;exitX=1;exitY=0.5;exitDx=0;exitDy=0;entryX=0;entryY=0.5;entryDx=0;entryDy=0;" edge="1" parent="WIyWlLk6GJQsqaUBKTNV-1" source="PrJg2hj3l42-YnzctC9T-18" target="PrJg2hj3l42-YnzctC9T-20">
          <mxGeometry relative="1" as="geometry" />
        </mxCell>
        <mxCell id="PrJg2hj3l42-YnzctC9T-23" style="edgeStyle=orthogonalEdgeStyle;rounded=0;orthogonalLoop=1;jettySize=auto;html=1;exitX=0.5;exitY=1;exitDx=0;exitDy=0;entryX=1;entryY=0.5;entryDx=0;entryDy=0;" edge="1" parent="WIyWlLk6GJQsqaUBKTNV-1" source="PrJg2hj3l42-YnzctC9T-20" target="PrJg2hj3l42-YnzctC9T-22">
          <mxGeometry relative="1" as="geometry" />
        </mxCell>
        <mxCell id="PrJg2hj3l42-YnzctC9T-25" style="edgeStyle=orthogonalEdgeStyle;rounded=0;orthogonalLoop=1;jettySize=auto;html=1;exitX=0.5;exitY=1;exitDx=0;exitDy=0;entryX=0;entryY=0.75;entryDx=0;entryDy=0;" edge="1" parent="WIyWlLk6GJQsqaUBKTNV-1" source="PrJg2hj3l42-YnzctC9T-22" target="PrJg2hj3l42-YnzctC9T-24">
          <mxGeometry relative="1" as="geometry" />
        </mxCell>
        <mxCell id="PrJg2hj3l42-YnzctC9T-30" style="edgeStyle=orthogonalEdgeStyle;rounded=0;orthogonalLoop=1;jettySize=auto;html=1;exitX=0.5;exitY=1;exitDx=0;exitDy=0;entryX=1;entryY=0.5;entryDx=0;entryDy=0;" edge="1" parent="WIyWlLk6GJQsqaUBKTNV-1" source="PrJg2hj3l42-YnzctC9T-24" target="PrJg2hj3l42-YnzctC9T-26">
          <mxGeometry relative="1" as="geometry" />
        </mxCell>
        <mxCell id="PrJg2hj3l42-YnzctC9T-35" style="edgeStyle=orthogonalEdgeStyle;rounded=0;orthogonalLoop=1;jettySize=auto;html=1;exitX=1;exitY=0.5;exitDx=0;exitDy=0;entryX=0;entryY=0.5;entryDx=0;entryDy=0;" edge="1" parent="WIyWlLk6GJQsqaUBKTNV-1" source="PrJg2hj3l42-YnzctC9T-31" target="PrJg2hj3l42-YnzctC9T-33">
          <mxGeometry relative="1" as="geometry" />
        </mxCell>
        <mxCell id="PrJg2hj3l42-YnzctC9T-37" style="edgeStyle=orthogonalEdgeStyle;rounded=0;orthogonalLoop=1;jettySize=auto;html=1;exitX=0.5;exitY=1;exitDx=0;exitDy=0;entryX=1;entryY=0.5;entryDx=0;entryDy=0;" edge="1" parent="WIyWlLk6GJQsqaUBKTNV-1" source="PrJg2hj3l42-YnzctC9T-33" target="PrJg2hj3l42-YnzctC9T-36">
          <mxGeometry relative="1" as="geometry" />
        </mxCell>
        <mxCell id="PrJg2hj3l42-YnzctC9T-44" style="edgeStyle=orthogonalEdgeStyle;rounded=0;orthogonalLoop=1;jettySize=auto;html=1;exitX=0;exitY=0.5;exitDx=0;exitDy=0;entryX=1;entryY=0.5;entryDx=0;entryDy=0;" edge="1" parent="WIyWlLk6GJQsqaUBKTNV-1" source="PrJg2hj3l42-YnzctC9T-42" target="PrJg2hj3l42-YnzctC9T-38">
          <mxGeometry relative="1" as="geometry" />
        </mxCell>
        <mxCell id="PrJg2hj3l42-YnzctC9T-45" style="edgeStyle=orthogonalEdgeStyle;rounded=0;orthogonalLoop=1;jettySize=auto;html=1;exitX=1;exitY=0.5;exitDx=0;exitDy=0;entryX=0;entryY=0.5;entryDx=0;entryDy=0;" edge="1" parent="WIyWlLk6GJQsqaUBKTNV-1" source="PrJg2hj3l42-YnzctC9T-33" target="PrJg2hj3l42-YnzctC9T-39">
          <mxGeometry relative="1" as="geometry" />
        </mxCell>
        <mxCell id="PrJg2hj3l42-YnzctC9T-47" style="edgeStyle=orthogonalEdgeStyle;rounded=0;orthogonalLoop=1;jettySize=auto;html=1;exitX=0;exitY=0.5;exitDx=0;exitDy=0;entryX=1;entryY=0.5;entryDx=0;entryDy=0;" edge="1" parent="WIyWlLk6GJQsqaUBKTNV-1" source="PrJg2hj3l42-YnzctC9T-46" target="PrJg2hj3l42-YnzctC9T-20">
          <mxGeometry relative="1" as="geometry" />
        </mxCell>
      </root>
    </mxGraphModel>
  </diagram>
</mxfile>
